<mxfile host="app.diagrams.net" agent="Mozilla/5.0 (Windows NT 10.0; Win64; x64) AppleWebKit/537.36 (KHTML, like Gecko) Chrome/141.0.0.0 Safari/537.36 Edg/141.0.0.0" version="28.2.7">
  <diagram name="Page-1" id="CD_hylJcVntiUzXwigdS">
    <mxGraphModel dx="1034" dy="570" grid="1" gridSize="10" guides="1" tooltips="1" connect="1" arrows="1" fold="1" page="1" pageScale="1" pageWidth="850" pageHeight="1100" math="0" shadow="0">
      <root>
        <mxCell id="0" />
        <mxCell id="1" parent="0" />
        <mxCell id="yapvV6f7iVuz6RzVZ9oo-1" value="" style="swimlane;startSize=0;align=center;strokeWidth=2;" parent="1" vertex="1">
          <mxGeometry x="80" y="200" width="720" height="410" as="geometry" />
        </mxCell>
        <mxCell id="yapvV6f7iVuz6RzVZ9oo-2" value="AplicacionConsultas" style="swimlane;fontStyle=0;childLayout=stackLayout;horizontal=1;startSize=30;horizontalStack=0;resizeParent=1;resizeParentMax=0;resizeLast=0;collapsible=1;marginBottom=0;whiteSpace=wrap;html=1;" parent="yapvV6f7iVuz6RzVZ9oo-1" vertex="1">
          <mxGeometry x="60" y="10" width="210" height="200" as="geometry" />
        </mxCell>
        <mxCell id="xDvdhMtEk47kbuB0TT0U-34" value="+ main(String[]): void&#xa;+ iniciar(): void" style="text;whiteSpace=wrap;strokeColor=none;fillColor=none;align=center;verticalAlign=middle;rounded=0;" vertex="1" parent="yapvV6f7iVuz6RzVZ9oo-2">
          <mxGeometry y="30" width="210" height="40" as="geometry" />
        </mxCell>
        <mxCell id="xDvdhMtEk47kbuB0TT0U-36" value="-controlador: Coordinado" style="text;whiteSpace=wrap;strokeColor=none;fillColor=none;align=center;verticalAlign=middle;rounded=0;" vertex="1" parent="yapvV6f7iVuz6RzVZ9oo-2">
          <mxGeometry y="70" width="210" height="30" as="geometry" />
        </mxCell>
        <mxCell id="xDvdhMtEk47kbuB0TT0U-35" value="-empresa: EmpresaColectivos" style="text;whiteSpace=wrap;strokeColor=none;fillColor=none;align=center;verticalAlign=middle;rounded=0;" vertex="1" parent="yapvV6f7iVuz6RzVZ9oo-2">
          <mxGeometry y="100" width="210" height="30" as="geometry" />
        </mxCell>
        <mxCell id="xDvdhMtEk47kbuB0TT0U-37" value="-interfaz: Interfaz" style="text;whiteSpace=wrap;strokeColor=none;fillColor=none;align=center;verticalAlign=middle;rounded=0;" vertex="1" parent="yapvV6f7iVuz6RzVZ9oo-2">
          <mxGeometry y="130" width="210" height="30" as="geometry" />
        </mxCell>
        <mxCell id="xDvdhMtEk47kbuB0TT0U-39" value="-calculo: Calculo " style="text;whiteSpace=wrap;strokeColor=none;fillColor=none;align=center;verticalAlign=middle;rounded=0;" vertex="1" parent="yapvV6f7iVuz6RzVZ9oo-2">
          <mxGeometry y="160" width="210" height="40" as="geometry" />
        </mxCell>
        <mxCell id="yapvV6f7iVuz6RzVZ9oo-6" value="Constantes" style="swimlane;fontStyle=0;childLayout=stackLayout;horizontal=1;startSize=30;horizontalStack=0;resizeParent=1;resizeParentMax=0;resizeLast=0;collapsible=1;marginBottom=0;whiteSpace=wrap;html=1;" parent="yapvV6f7iVuz6RzVZ9oo-1" vertex="1">
          <mxGeometry x="40" y="240" width="250" height="130" as="geometry" />
        </mxCell>
        <mxCell id="yapvV6f7iVuz6RzVZ9oo-7" value="&lt;div&gt;&lt;u&gt;+ COLECTIVO: int = 1&lt;/u&gt;&lt;/div&gt;&lt;div&gt;&lt;u&gt;+ CAMINANDO: int = 2&lt;/u&gt;&lt;/div&gt;&lt;div&gt;&lt;u&gt;+ PARADA: String = &quot;PARADA&quot;&lt;/u&gt;&lt;/div&gt;&lt;div&gt;&lt;u&gt;+ LINEA: String = &quot;LINEA&quot;&lt;/u&gt;&lt;/div&gt;&lt;div&gt;&lt;u&gt;+ TRAMO: String = &quot;TRAMO&quot;&lt;/u&gt;&lt;/div&gt;&lt;div&gt;&lt;u&gt;+ FRECUENCIA: String = &quot;FRECUENCIA&quot;&lt;/u&gt;&lt;/div&gt;" style="text;strokeColor=none;fillColor=none;align=left;verticalAlign=middle;spacingLeft=4;spacingRight=4;overflow=hidden;points=[[0,0.5],[1,0.5]];portConstraint=eastwest;rotatable=0;whiteSpace=wrap;html=1;" parent="yapvV6f7iVuz6RzVZ9oo-6" vertex="1">
          <mxGeometry y="30" width="250" height="100" as="geometry" />
        </mxCell>
        <mxCell id="yapvV6f7iVuz6RzVZ9oo-18" value="Coordinador" style="swimlane;fontStyle=0;childLayout=stackLayout;horizontal=1;startSize=30;horizontalStack=0;resizeParent=1;resizeParentMax=0;resizeLast=0;collapsible=1;marginBottom=0;whiteSpace=wrap;html=1;" parent="yapvV6f7iVuz6RzVZ9oo-1" vertex="1">
          <mxGeometry x="310" y="30" width="380" height="350" as="geometry" />
        </mxCell>
        <mxCell id="xDvdhMtEk47kbuB0TT0U-7" value="-empresa: EmpresaColectivos " style="text;whiteSpace=wrap;strokeColor=none;fillColor=none;align=center;verticalAlign=middle;rounded=0;" vertex="1" parent="yapvV6f7iVuz6RzVZ9oo-18">
          <mxGeometry y="30" width="380" height="30" as="geometry" />
        </mxCell>
        <mxCell id="xDvdhMtEk47kbuB0TT0U-8" value="-interfaz: Interfaz   " style="text;whiteSpace=wrap;strokeColor=none;fillColor=none;align=center;verticalAlign=middle;rounded=0;" vertex="1" parent="yapvV6f7iVuz6RzVZ9oo-18">
          <mxGeometry y="60" width="380" height="30" as="geometry" />
        </mxCell>
        <mxCell id="xDvdhMtEk47kbuB0TT0U-15" value="+Coordinador()" style="text;whiteSpace=wrap;strokeColor=none;fillColor=none;align=center;verticalAlign=middle;rounded=0;" vertex="1" parent="yapvV6f7iVuz6RzVZ9oo-18">
          <mxGeometry y="90" width="380" height="30" as="geometry" />
        </mxCell>
        <mxCell id="xDvdhMtEk47kbuB0TT0U-9" value="-calculo: Calculo  " style="text;whiteSpace=wrap;strokeColor=none;fillColor=none;align=center;verticalAlign=middle;rounded=0;" vertex="1" parent="yapvV6f7iVuz6RzVZ9oo-18">
          <mxGeometry y="120" width="380" height="30" as="geometry" />
        </mxCell>
        <mxCell id="xDvdhMtEk47kbuB0TT0U-16" value="+getEmpresa(): EmpresaColectivos" style="text;whiteSpace=wrap;strokeColor=none;fillColor=none;align=center;verticalAlign=middle;rounded=0;" vertex="1" parent="yapvV6f7iVuz6RzVZ9oo-18">
          <mxGeometry y="150" width="380" height="30" as="geometry" />
        </mxCell>
        <mxCell id="xDvdhMtEk47kbuB0TT0U-12" value="+ consulta(origen: Parada, destino: Parada, diaSemana: int, horaLlegaParada:LocalTime):void" style="text;whiteSpace=wrap;strokeColor=none;fillColor=none;align=center;verticalAlign=middle;rounded=0;" vertex="1" parent="yapvV6f7iVuz6RzVZ9oo-18">
          <mxGeometry y="180" width="380" height="50" as="geometry" />
        </mxCell>
        <mxCell id="xDvdhMtEk47kbuB0TT0U-17" value="+setEmpresa(empresa: EmpresaColectivos): void" style="text;whiteSpace=wrap;strokeColor=none;fillColor=none;align=center;verticalAlign=middle;rounded=0;" vertex="1" parent="yapvV6f7iVuz6RzVZ9oo-18">
          <mxGeometry y="230" width="380" height="30" as="geometry" />
        </mxCell>
        <mxCell id="xDvdhMtEk47kbuB0TT0U-18" value="+setInterfaz(interfaz: Interfaz): void" style="text;whiteSpace=wrap;strokeColor=none;fillColor=none;align=center;verticalAlign=middle;rounded=0;" vertex="1" parent="yapvV6f7iVuz6RzVZ9oo-18">
          <mxGeometry y="260" width="380" height="30" as="geometry" />
        </mxCell>
        <mxCell id="xDvdhMtEk47kbuB0TT0U-19" value="+setCalculo(calculo: Calculo): void" style="text;whiteSpace=wrap;strokeColor=none;fillColor=none;align=center;verticalAlign=middle;rounded=0;" vertex="1" parent="yapvV6f7iVuz6RzVZ9oo-18">
          <mxGeometry y="290" width="380" height="30" as="geometry" />
        </mxCell>
        <mxCell id="xDvdhMtEk47kbuB0TT0U-21" value="+iniciar(coord: Coordinador,args: String[]): void" style="text;strokeColor=none;fillColor=none;align=center;verticalAlign=middle;rounded=0;fontColor=default;labelBackgroundColor=none;labelBorderColor=none;whiteSpace=wrap;" vertex="1" parent="yapvV6f7iVuz6RzVZ9oo-18">
          <mxGeometry y="320" width="380" height="30" as="geometry" />
        </mxCell>
        <mxCell id="yapvV6f7iVuz6RzVZ9oo-14" value="" style="swimlane;startSize=0;strokeWidth=2;" parent="yapvV6f7iVuz6RzVZ9oo-1" vertex="1">
          <mxGeometry y="-30" width="150" height="30" as="geometry" />
        </mxCell>
        <mxCell id="yapvV6f7iVuz6RzVZ9oo-15" value="Controlador" style="text;html=1;align=center;verticalAlign=middle;resizable=0;points=[];autosize=1;strokeColor=none;fillColor=none;fontSize=16;" parent="1" vertex="1">
          <mxGeometry x="80" y="170" width="110" height="30" as="geometry" />
        </mxCell>
      </root>
    </mxGraphModel>
  </diagram>
</mxfile>
